<svg xmlns="http://www.w3.org/2000/svg" xmlns:xlink="http://www.w3.org/1999/xlink" aria-hidden="true" role="img" class="iconify iconify--logos" width="35.93" height="32" preserveAspectRatio="xMidYMid meet" viewBox="0 0 256 228"><path fill="#00D8FF" d="M210.483 73.824a171.49 171.49 0 0 0-8.24-2.597c.465-1.9.893-3.777 1.273-5.621c6.238-30.281 2.16-54.676-11.769-62.708c-13.355-7.7-35.196.329-57.254 19.526a171.23 171.23 0 0 0-6.375 5.848a155.866 155.866 0 0 0-4.241-3.896C87.345-4.833 57.325-6.93 39.218 3.354C22.28 12.913 17.24 34.58 22.362 62.406a170.974 170.974 0 0 0 3.32 14.896a145.465 145.465 0 0 0-5.742 3.305C6.501 87.898 0 98.943 0 110.027c0 12.942 8.52 24.593 21.688 33.058a145.724 145.724 0 0 0 4.15 2.842a171.103 171.103 0 0 0-3.933 15.597c-5.688 29.413-1.216 52.696 12.202 60.853c14.066 8.48 38.06 1.728 62.217-19.68a145.38 145.38 0 0 0 3.896-3.58a171.578 171.578 0 0 0 7.056 6.18c23.531 20.866 52.4 29.866 68.01 22.768c14.406-6.646 20.582-28.216 15.1-56.25a170.59 170.59 0 0 0-1.178-5.47a144.928 144.928 0 0 0 6.259-3.482c14.762-9.24 23.442-21.15 23.442-33.9c0-11.78-7.768-22.513-20.008-30.846Zm-6.013 72.984c-2.278 1.428-4.718 2.778-7.304 4.037c-3.607 1.774-7.456 3.38-11.52 4.8c.62 2.19 1.188 4.41 1.7 6.646c4.68 20.682 5.76 38.216 2.12 49.826c-3.18 10.213-9.78 16.416-17.78 18.04c-8.62 1.76-21.12-2.4-35.12-11.78a155.8 155.8 0 0 1-5.88-4.2c-1.9 1.18-3.84 2.32-5.82 3.42c-18.62 10.36-37.12 15.18-48.12 12.04c-9.74-2.8-16.58-9.98-19.32-20.18c-3.94-14.84.42-33.78 11.98-53.82a155.927 155.927 0 0 1 2.18-3.58c-2.04-1.22-4.02-2.5-5.94-3.84c-11.48-8.04-20.18-16.44-24.38-24.44c-5.64-10.78-5.2-20.5 1.1-27.42c6.82-7.48 19.22-9.86 33.82-6.18c2.5.64 5.06 1.38 7.66 2.2c-.42-2.24-.8-4.5-1.14-6.76c-4.98-32.18-1.98-56.58 9.82-63.98c10.4-6.64 27.38-1.58 45.38 13.42c1.5 1.26 3.06 2.58 4.66 3.94c2.5-1.9 5.08-3.74 7.72-5.52c20.48-15.98 40.18-22.18 51.18-18.6c9.64 3.16 16.18 11.78 18.78 24.18c3.64 17.44-.18 38.02-10.18 58.78a155.96 155.96 0 0 1-.94 1.78c2.38 1.5 4.7 3.06 6.94 4.68c13.48 9.82 23.18 20.02 27.18 29.02c5.38 12.18 3.18 23.18-5.78 30.58c-8.24 6.88-20.84 8.6-34.84 4.42Z"></path></svg>

