<svg width="1392" height="165" viewBox="0 0 1392 165" fill="none" xmlns="http://www.w3.org/2000/svg">
<path d="M1123.87 0.087134V33.236H1114.84C1055.05 33.236 995.254 33.4723 935.474 33.0691C921.015 32.9718 910.884 37.9775 911.652 55.2193C912.512 74.4217 911.818 93.6797 911.863 112.91C911.894 124.27 918.588 130.75 930.755 130.778C976.724 130.861 1022.71 130.861 1068.68 130.778C1081.09 130.75 1088.25 124.048 1088.49 112.687C1088.58 108.335 1088.49 103.969 1088.49 98.9218H982.363V65.9677H1123.51C1123.71 67.2608 1124.18 68.8042 1124.16 70.3337C1123.93 87.7007 1125.05 105.193 1123.01 122.379C1120.27 145.6 1099.18 163.412 1073.97 163.773C1024.5 164.496 974.99 164.622 925.523 163.732C897.239 163.217 875.754 140.817 875.679 114.62C875.619 93.5407 875.664 72.4473 875.679 51.3677C875.679 21.709 898.083 0.545991 930.408 0.156659C956.024 -0.149245 981.654 0.087134 1007.28 0.087134H1123.89H1123.87Z" fill="white"/>
<path d="M752.848 113.092C765 130.041 776.82 146.546 789.439 164.15C774.95 164.15 761.773 164.317 748.596 163.955C746.772 163.899 744.586 161.577 743.304 159.839C733.444 146.435 723.885 132.836 713.859 119.529C712.306 117.485 708.853 115.469 706.26 115.455C664.829 115.205 623.398 115.275 581.967 115.302C580.745 115.302 579.524 115.539 577.489 115.761V163.802H542.104V0.421718C544.033 0.296576 545.526 0.101908 547.003 0.101908C609.527 0.088003 672.051 -0.0232337 734.575 0.143623C762.602 0.213146 784.223 15.2859 788.429 39.7025C790.63 52.4671 789.907 66.1215 787.615 78.9416C785.082 93.0549 774.619 103.136 760.627 109.657C758.215 110.783 755.773 111.812 752.833 113.105H752.848V113.092ZM577.805 82.1397H724.895C750.903 82.1397 754.295 78.9833 754.265 54.8448C754.25 38.5206 748.566 33.2368 730.866 33.2368C682.68 33.2368 634.494 33.2368 586.294 33.2368H577.79V82.1397H577.805Z" fill="white"/>
<path d="M1391.99 164.177C1379.47 164.177 1366.57 164.399 1354.57 163.982C1352.24 163.899 1349.24 161.771 1347.9 159.811C1339.07 146.893 1330.46 133.837 1322.13 120.627C1319.72 116.818 1317.23 115.121 1312.17 115.149C1275.74 115.385 1239.32 115.344 1202.88 115.191C1198.58 115.177 1196.09 116.386 1193.91 119.835C1185.55 133.03 1176.72 145.962 1168.37 159.143C1166.1 162.703 1163.74 164.441 1158.97 164.288C1147.7 163.927 1135.44 164.177 1123.21 164.177C1124.7 162.161 1125.85 160.395 1126.8 158.935C1157.48 111.673 1188.22 64.4385 1218.89 17.1625C1226.08 6.0804 1236.71 0.518515 1250.53 0.156992C1257.05 -0.00986412 1263.67 -0.204531 1270.09 0.574133C1280.79 1.86727 1289.69 6.72002 1295.33 15.3548C1327.19 64.1187 1358.86 112.98 1390.6 161.827C1390.82 162.189 1391.2 162.786 1392 164.191H1391.99V164.177ZM1296.75 81.8472C1287.08 66.983 1278.1 53.1339 1269.08 39.2988C1263.26 30.358 1252.3 30.3441 1246.49 39.257C1242.89 44.7911 1239.27 50.3391 1235.67 55.8732C1230.2 64.2994 1224.74 72.7118 1218.8 81.8472H1296.76H1296.75Z" fill="white"/>
<path d="M0 164.177C15.6045 140.164 30.2894 117.582 44.9893 94.9873C61.5135 69.5834 78.2187 44.2768 94.4564 18.72C102.658 5.8164 114.509 -0.329483 130.475 0.129373C133.973 0.129373 137.245 0.101562 140.592 0.101562C153.075 0.101562 164.127 4.09221 171.801 15.7305C204.05 64.0076 235.38 112.813 266.966 161.452C267.312 161.994 267.418 162.675 267.916 164.149C255.04 164.149 242.601 164.344 230.208 163.955C228.188 163.885 225.655 161.521 224.389 159.63C215.493 146.463 206.749 133.225 198.261 119.835C196.074 116.387 193.602 115.163 189.32 115.191C152.638 115.33 115.956 115.358 79.2741 115.163C74.7962 115.135 72.5649 116.706 70.439 120.044C61.9055 133.406 53.2665 146.727 44.2053 159.783C42.6976 161.952 38.9284 163.857 36.1241 163.982C24.6507 164.455 13.147 164.177 0 164.177ZM173.369 81.8056C163.75 67.011 154.553 53.2871 145.899 39.285C143.064 34.7104 139.958 32.8194 134.124 33.0279C129.118 33.2087 125.982 34.3211 123.374 38.5064C114.478 52.8282 105.146 66.9137 95.5118 81.8056H173.369Z" fill="white"/>
<path d="M268.021 0.351562H304.206V111.603C304.206 124.646 310.794 130.792 324.876 130.806C369.85 130.833 414.84 130.833 459.814 130.806C474.167 130.806 480.831 124.562 480.831 111.144C480.861 76.8414 480.831 42.5385 480.831 8.23553V0.448895H516.774V7.41515C516.774 42.6497 516.804 77.8703 516.774 113.105C516.744 142.11 494.732 163.676 463.251 164.024C416.016 164.552 368.765 164.552 321.529 164.024C290.305 163.676 268.067 141.902 268.021 112.98C267.946 75.6873 268.006 38.3948 268.006 0.351562H268.021Z" fill="white"/>
<path d="M815.673 0.351562H850.35V163.899H815.673V0.351562Z" fill="white"/>
</svg>
