<svg width="19" height="16" viewBox="0 0 19 16" fill="none" xmlns="http://www.w3.org/2000/svg">
<g clip-path="url(#clip0_4404_177)">
<path d="M10.8799 16.0119C10.8799 15.0195 10.8652 14.1219 10.8957 13.2265C10.8999 13.0934 11.0989 12.9039 11.2473 12.8496C12.1189 12.5333 13.002 12.249 13.882 11.9573C14.0283 11.9083 14.1799 11.8742 14.3831 11.8178C12.7441 9.17723 11.1273 6.57284 9.46941 3.9035C7.80942 6.58136 6.19364 9.18575 4.59576 11.7625C5.6147 12.1138 6.60206 12.462 7.59574 12.7931C7.92837 12.9039 8.05784 13.0859 8.04416 13.4533C8.01468 14.2668 8.03468 15.0813 8.03468 15.998C6.8168 15.1292 5.55891 14.5042 4.16208 14.3083C2.78419 14.1156 1.38736 14.0602 0 13.9452C0.0210525 13.9079 0.0947362 13.7557 0.183157 13.6141C2.79156 9.41041 5.40102 5.20996 8.00837 1.00737C8.8452 -0.340604 10.102 -0.33528 10.9441 1.02122C13.542 5.20889 16.1409 9.3955 18.7378 13.5832C18.8283 13.7301 18.9115 13.8813 19.0462 14.1145C16.0978 13.8142 13.3715 14.2327 10.8789 16.0108H10.8799V16.0119Z" fill="#00CAFF"/>
</g>
<defs>
<clipPath id="clip0_4404_177">
<rect width="19" height="16" fill="white"/>
</clipPath>
</defs>
</svg>
